<?xml version="1.0" encoding="UTF-8"?>
<svg width="221px" height="221px" viewBox="0 0 221 221" version="1.1" xmlns="http://www.w3.org/2000/svg" xmlns:xlink="http://www.w3.org/1999/xlink">
    <!-- Generator: Sketch 52.6 (67491) - http://www.bohemiancoding.com/sketch -->
    <title>rhet</title>
    <desc>Created with Sketch.</desc>
    <g id="Page-1" stroke="none" stroke-width="1" fill="none" fill-rule="evenodd">
        <g id="Icons" transform="translate(-32.000000, -750.000000)">
            <g id="Skills" transform="translate(33.000000, 751.000000)">
                <g id="rhet">
                    <g id="Group-3">
                        <circle id="Oval" fill="#EFECEF" cx="110" cy="110" r="110"></circle>
                        <path d="M180.425253,25.5711423 C196.537363,44.6927841 206.252646,69.3829278 206.252646,96.3455889 C206.252646,157.046393 157.045176,206.253322 96.3453243,206.253322 C69.382764,206.253322 44.6927127,196.538727 25.5711423,180.425832 C45.7321334,204.352909 75.9137791,219.559118 109.651796,219.559118 C170.352373,219.559118 219.559118,170.351464 219.559118,109.651385 C219.558393,75.9139673 204.35224,45.7329342 180.425253,25.5711423 Z" id="Path" fill="#D3CED5"></path>
                    </g>
                    <circle id="Oval" stroke="#665E66" stroke-width="8" cx="109.5" cy="109.5" r="106.5"></circle>
                    <path d="M154,174.905888 L154,190 L86,190 L86,174.905888 C86.0017787,166.120129 93.2290468,158.998247 102.142618,159 L110.335775,159 L110.335775,159.299813 C110.335775,164.529891 114.636915,168.77111 119.943079,168.77111 C125.249241,168.77111 129.552161,164.529891 129.552161,159.299813 L129.552161,159 L137.862718,159 C146.774511,159 154,166.121882 154,174.905888 Z" id="Path" fill="#A2F4C1"></path>
                    <path d="M145.222018,117.471869 C147.795817,123.831982 147.491093,130.750149 144.851874,137.032992 C142.648221,142.285579 139.108602,146.923447 135.088657,150.931142 C133.277529,152.771865 131.323508,154.466636 129.245532,156 L129.245532,152.378651 C135.04906,148.971939 138.611058,142.754345 138.605894,136.038795 L138.605894,128.402883 L138.633439,126.605087 C138.728128,122.290032 136.622606,118.222239 133.039947,115.801138 C131.623067,114.844717 130.008203,114.221412 128.315866,113.975868 C119.063965,130.865194 102.43499,132.487847 101.782502,132.544511 L101.742906,132.544511 C101.620672,132.544511 101.503603,132.592589 101.417522,132.680161 C101.331442,132.766016 101.284959,132.884495 101.284959,133.006409 L101.284959,136.275754 C101.283237,142.939792 104.853844,149.093853 110.647042,152.412993 L110.647042,155.13802 C100.179689,149.792709 93.5101945,138.45131 93.0264238,126.816289 C92.8267177,122.343262 93.7615485,117.892557 95.7448365,113.87456 C99.2138689,106.930636 105.719811,101.940764 113.136482,99.8047005 C117.69529,98.4207234 122.612191,98.8328257 126.874883,100.95687 C130.90688,103.05344 134.060859,106.509948 135.777298,110.709957 L135.904697,111.101454 C140.453175,110.024838 143.705285,113.721739 145.222018,117.471869 Z" id="Path" fill="#4B5D63"></path>
                    <path d="M110.524618,153.459053 C104.630845,150.051667 100.998249,143.733988 101.000001,136.892773 L101.000001,133.536506 C101.000001,133.411351 101.047291,133.289722 101.134865,133.201584 C101.22244,133.111684 101.341542,133.062327 101.465898,133.062327 L101.506182,133.062327 C102.169998,133.004157 119.087666,131.338363 128.500188,114 C130.221905,114.252072 131.864805,114.891949 133.306284,115.873798 C136.95114,118.359269 139.093216,122.535213 138.996883,126.964992 L138.968859,128.810586 L138.968859,136.649514 C138.974114,143.543611 135.350276,149.926512 129.445994,153.423799 C126.619085,155.093119 123.405095,155.981542 120.128052,155.999169 C116.75818,156.030899 113.442605,155.153052 110.524618,153.459053 Z" id="Path" fill="#F7CAA5"></path>
                    <path d="M130,160.715308 L130,161.000196 C130,165.969914 125.745534,170 120.499121,170 C115.252708,170 111,165.969914 111,161.000196 L111,153.03332 C113.930112,154.634359 117.259465,155.464034 120.64334,155.434045 C123.934,155.417385 127.161344,154.577715 130,153 L130,160.715308 Z" id="Path" fill="#EDB288"></path>
                    <path d="M87.7165905,193.999174 L153.569366,193.999174 C155.031881,193.999174 156,192.883852 156,191.424824 L156,176.630041 C156,166.578388 148.017324,158.363838 137.941649,158.363838 L132.627329,158.363838 L132.627329,158.018414 C134.422312,156.650468 136.1036,155.138166 137.65397,153.500412 C142.387762,148.777905 145.843362,143.813086 147.969089,138.741719 C150.964747,131.614995 151.090499,123.948655 148.342901,117.157043 C146.270575,112.027246 142.442886,109.002642 138.220715,108.947649 C133.719478,99.5627832 123.011597,94.8763656 113.041004,97.9267473 C104.632837,100.346431 97.694075,105.978038 94.0024745,113.369414 C91.8491848,117.794616 90.8483357,122.692413 91.0946718,127.607394 C91.6114618,139.973901 98.2298137,151.484582 108.813665,157.404901 L108.813665,158.363838 L103.349476,158.363838 C93.2393489,158.386179 85.0430658,166.544017 85,176.630041 L85,191.424824 C85.0396206,192.883852 86.2540761,194.035264 87.7165905,193.999174 Z M114.10559,161.034426 L114.10559,157.162589 C116.215814,157.898118 118.43801,158.260727 120.672263,158.231512 L120.835913,158.231512 C123.044327,158.205734 125.237238,157.841406 127.335404,157.152278 L127.335404,161.333449 C127.311287,165.009375 124.317352,167.977268 120.632643,167.977268 C118.884171,167.980705 117.209773,167.279547 115.99015,166.030179 C114.755022,164.780811 114.076305,163.088064 114.10559,161.333449 L114.10559,161.034426 Z M136.596273,129.085326 L136.596273,136.727607 C136.596273,142.508726 133.536879,147.861931 128.546414,150.802327 C123.621409,153.661953 117.537073,153.670546 112.601732,150.828105 L112.522491,150.828105 C107.538917,147.977073 104.446792,142.697764 104.403727,136.964764 L104.403727,135.574477 C115.140892,133.498498 124.501674,126.999037 130.182914,117.676038 C130.887471,117.928661 131.559297,118.262055 132.186335,118.669345 C135.033846,120.588938 136.703077,123.823202 136.613499,127.248223 L136.596273,129.085326 Z M90.2919255,176.630041 C90.3315461,169.458636 96.1609328,163.660332 103.349476,163.643147 L108.867066,163.643147 C109.347681,165.949408 110.482895,168.068349 112.136622,169.747348 C114.374321,171.986586 117.418211,173.24111 120.587854,173.22908 C126.374175,173.22908 131.211325,168.922456 132.30692,163.643147 L137.941649,163.643147 C145.099185,163.643147 150.708075,169.48957 150.708075,176.630041 L150.708075,188.719865 L90.2919255,188.719865 L90.2919255,176.630041 Z" id="Shape" fill="#665E66" fill-rule="nonzero"></path>
                    <path d="M166,54.7634581 L166,74.1580116 C166,79.5535149 161.106764,83.9249527 155.073981,83.9232108 L147.188702,83.9232108 L148.456813,100 L119,84.1008551 L126.643733,84.1583281 C132.676517,84.2036101 137.604816,79.8670044 137.655462,74.4749842 L137.898955,48.7531667 C137.912591,47.4678593 137.639879,46.1912603 137.096402,45 L155.073981,45 C161.106764,45 165.996104,49.3696959 166,54.7634581 Z" id="Path" fill="#A2F4C1"></path>
                    <path d="M137.170759,44.8815178 C137.731967,46.1296549 138.013578,47.4672052 137.999497,48.8138797 L137.748059,75.7637876 C137.695761,81.4132503 132.606664,85.9569076 126.377048,85.9094636 L118.48392,85.8492466 L106.099111,85.7561836 L75.1199931,109 L76.6447106,85.5317378 L61.1863294,85.414953 C54.9567126,85.3693341 49.9500881,80.7508617 50.0003755,75.0995743 L50.2477902,48.1460166 C50.3041122,42.4965539 55.39522,37.9547217 61.6228253,38.0003407 L118.355184,38.4291598 L126.815554,38.4948512 C131.371603,38.5295218 135.458972,41.0495179 137.170759,44.8815178 Z" id="Path" fill="#90D8F9"></path>
                    <g id="Group" transform="translate(50.000000, 36.000000)" fill="#665E66" fill-rule="nonzero">
                        <path d="M13.8208089,50.2984934 L25.6609623,50.3867942 L24.3694514,69.8631548 C24.2972673,70.9193005 24.9410718,71.9131158 26.0043248,72.3909783 C27.0675784,72.8705721 28.3512857,72.744181 29.2701707,72.0689407 L58.4735415,50.6309196 L68.5695698,50.7071005 L97.3710507,66.1354809 C98.3289536,66.6479712 99.5287716,66.6445086 100.484724,66.1268241 C101.438726,65.6074083 101.988886,64.6603401 101.908898,63.6699873 L100.865154,50.5287677 L105.54737,50.5287677 C113.234008,50.5287677 119.675957,44.9866013 119.675957,38.1666723 L119.675957,18.8859583 C119.675957,12.0677601 113.234008,6.64852187 105.54737,6.64852187 L89.3937254,6.64852187 C86.9316599,2.65940861 82.4679474,0.567894374 77.5243075,0.531535379 L14.2948834,0 L14.177828,0 C6.53215946,0.0103883158 0.318468853,5.47637368 0.240431921,12.2599441 L0.000468229595,37.8325145 C-0.0619613162,44.6611008 6.12636741,50.2430891 13.8208089,50.2984934 Z M91.0988321,38.5042923 L91.3426974,12.9940517 C91.3465995,12.6269979 91.32709,12.4105743 91.2958752,11.9673395 L105.54737,11.9673395 C109.929144,11.9673395 113.68272,15.0007277 113.68272,18.8859583 L113.68272,38.1666723 C113.68272,42.0536337 109.929144,45.20995 105.54737,45.20995 L97.6500328,45.20995 C96.8189392,45.2116817 96.0249133,45.5181369 95.4591458,46.0583293 C94.891427,46.5985218 94.6026904,47.3239726 94.6612178,48.0598115 L95.525477,58.9311841 L79.855661,50.5374249 C86.3463829,49.4016357 91.0422555,44.3736909 91.0988321,38.5042923 Z M6.23366832,12.3066916 C6.27853968,8.43877517 9.8214164,5.32401172 14.177828,5.31881745 L14.2441597,5.31881745 L77.4735837,5.78456061 C80.6828525,5.80360552 83.5624153,7.54018575 84.7661348,10.1822809 L84.7680861,10.1874752 C85.1621724,11.0445109 85.3592155,11.963877 85.349461,12.8901686 L85.1036449,38.4592765 C85.068528,42.3514321 81.4846821,45.4817779 77.0990065,45.4488815 L57.4297979,45.3034451 C56.7255143,45.2999825 56.0407406,45.5164056 55.4964328,45.9128929 L30.7567745,64.0734002 L31.8297821,47.9057183 C31.878555,47.1785362 31.5878676,46.4652051 31.0279525,45.9336695 C30.4660866,45.4004027 29.6837664,45.0956787 28.8624279,45.0904845 L13.8695824,44.9796758 C9.48585759,44.948511 5.95858825,41.7679551 5.99370462,37.8775308 L6.23366832,12.3066916 Z" id="Shape"></path>
                    </g>
                </g>
            </g>
        </g>
    </g>
</svg>