<?xml version="1.0" encoding="UTF-8"?>
<svg width="220px" height="220px" viewBox="0 0 220 220" version="1.1" xmlns="http://www.w3.org/2000/svg" xmlns:xlink="http://www.w3.org/1999/xlink">
    <!-- Generator: Sketch 52.6 (67491) - http://www.bohemiancoding.com/sketch -->
    <title>ux</title>
    <desc>Created with Sketch.</desc>
    <g id="Page-1" stroke="none" stroke-width="1" fill="none" fill-rule="evenodd">
        <g id="Icons" transform="translate(-713.000000, -751.000000)">
            <g id="Skills" transform="translate(33.000000, 751.000000)">
                <g id="ux" transform="translate(680.000000, 0.000000)">
                    <circle id="Oval" fill="#EFECEF" cx="110" cy="110" r="65"></circle>
                    <path d="M151.800652,60 C161.352237,71.3356965 167.111654,85.9725136 167.111654,101.956525 C167.111654,137.941191 137.940469,167.112055 101.956368,167.112055 C85.9724164,167.112055 71.3356541,161.353046 60,151.800995 C71.9518438,165.985451 89.8441344,175 109.844714,175 C145.829245,175 175,145.828706 175,109.84447 C174.99957,89.844246 165.985055,71.9523185 151.800652,60 Z" id="Path" fill="#D3CED5"></path>
                    <path d="M132.60849,121 L110,121 L87.3915102,121 C77.7865175,121 70,128.799028 70,138.419452 L70,161.270763 C81.0451391,169.874223 94.9245171,175 110,175 C125.075483,175 138.954431,169.874223 150,161.270763 L150,138.419452 C150,128.799028 142.213483,121 132.60849,121 Z" id="Path" fill="#A2F4C1"></path>
                    <path d="M150,161.270653 L150,138.41916 C150,128.798659 142.213483,121 132.60892,121 L123.479529,121 C133.084091,121.000431 140.869748,128.799521 140.869748,138.41916 L140.869748,152.070477 C140.869748,153.487083 140.178942,154.81833 139.013827,155.621044 C128.51875,162.853664 115.8075,167.09141 102.104589,167.09141 C90.4314844,167.09141 79.4780223,164.015057 70,158.633594 L70,161.270653 C81.0451391,169.874182 94.9245171,175 110,175 C125.075483,175 138.954861,169.874182 150,161.270653 Z" id="Path" fill="#86F1A7"></path>
                    <polygon id="Path" fill="#F1B986" points="102 108 119 108 119 121 102 121"></polygon>
                    <path d="M92,73 L92,90.4997835 C92,100.164813 99.8351874,108 109.500217,108 C119.165246,108 127,100.164813 127,90.4997835 L127,73 L92,73 Z" id="Path" fill="#F1D0A5"></path>
                    <path d="M127.963465,73.1995452 C127.963465,65.909633 122.093317,60 114.852112,60 L106.111354,60 C98.8701483,60 93,65.909633 93,73.1995452 L93,81.9990968 C102.574468,81.9990968 110.518291,80.2751634 116.404015,78.3534874 C121.252685,82.1554616 127.963465,81.9990968 127.963465,81.9990968 C128.045668,82.0818525 127.963465,73.1995452 127.963465,73.1995452 Z" id="Path" fill="#665E66"></path>
                    <circle id="Oval" fill="#E27A66" cx="46" cy="46" r="13"></circle>
                    <circle id="Oval" fill="#90D8F9" cx="174" cy="174" r="13"></circle>
                    <circle id="Oval" fill="#F4DD45" cx="46" cy="174" r="13"></circle>
                    <circle id="Oval" fill="#AAD540" cx="174" cy="46" r="13"></circle>
                    <path d="M109.5,41 C94.0295207,41 79.4304539,46.0329133 67.2806463,55.5538378 C65.8763929,56.6544107 65.6300024,58.6854091 66.7305753,60.0892318 C67.8315789,61.4934853 69.8625773,61.739445 71.2659693,60.6393029 C82.2673905,52.0177898 95.4884797,47.4608581 109.5,47.4608581 C143.708648,47.4608581 171.538711,75.2913522 171.538711,109.499569 C171.538711,126.897236 164.337389,142.642104 152.762636,153.918346 L152.762636,138.218275 C152.762636,126.839515 143.505333,117.582642 132.126572,117.582642 L121.433139,117.582642 L121.433139,107.758898 C121.433139,107.57109 121.413755,107.38802 121.383172,107.209258 C126.672814,103.469464 130.136064,97.3105632 130.136064,90.3539088 L130.136064,72.9489197 C130.136064,63.9694512 122.830931,56.664318 113.851463,56.664318 L105.148968,56.664318 C96.1694996,56.664318 88.8643664,63.9694512 88.8643664,72.9489197 L88.8643664,90.3539088 C88.8643664,97.3105632 92.328048,103.469464 97.617259,107.209258 C97.5866756,107.388451 97.5672917,107.57109 97.5672917,107.758898 L97.5672917,117.582642 L86.8738587,117.582642 C75.4950982,117.582642 66.2377943,126.839515 66.2377943,138.218275 L66.2377943,153.918346 C54.6630414,142.642104 47.4617196,126.897236 47.4617196,109.499569 C47.4617196,95.2873183 52.1371082,81.9171886 60.9817512,70.8334937 C62.0943851,69.4391476 61.866517,67.4064261 60.4717401,66.2933614 C59.0769632,65.1807274 57.0442417,65.4085956 55.9311771,66.8038032 C46.1625698,79.0440688 41,93.8076831 41,109.5 C41,147.271402 71.7290283,178 109.5,178 C147.270972,178 178,147.271402 178,109.5 C178,71.7285976 147.271402,41 109.5,41 Z M95.3252245,72.9489197 C95.3252245,67.5326366 99.7318235,63.1256068 105.148537,63.1256068 L113.851032,63.1256068 C119.267746,63.1256068 123.674345,67.5322058 123.674345,72.9489197 L123.674345,78.1097665 C121.774726,77.7634414 119.353896,77.0337465 117.38148,75.497252 C116.536344,74.8386313 115.418971,74.6422081 114.399811,74.9730261 C108.330507,76.9411347 101.9278,78.0744447 95.3252245,78.3531417 L95.3252245,72.9489197 Z M95.3252245,84.8178765 C102.05358,84.5568405 108.602742,83.4795282 114.852101,81.6010162 C117.910014,83.5122654 121.263853,84.3130345 123.674776,84.6472985 L123.674776,90.3543396 C123.674776,98.1703454 117.316006,104.528684 109.5,104.528684 C101.683994,104.528684 95.3252245,98.1699146 95.3252245,90.3543396 L95.3252245,84.8178765 Z M104.02815,110.247786 C105.772267,110.728076 107.60555,110.989973 109.5,110.989973 C111.39445,110.989973 113.228164,110.728076 114.97185,110.247786 L114.97185,117.582642 L104.02815,117.582642 L104.02815,110.247786 Z M90.1040723,168.42997 L90.1040723,146.921201 C90.1040723,145.136593 88.6576051,143.690556 86.8734279,143.690556 C85.0892507,143.690556 83.6427835,145.136593 83.6427835,146.921201 L83.6427835,165.886376 C79.7578259,164.097891 76.0882445,161.919575 72.6835761,159.401395 C72.6926219,159.303615 72.6986524,159.204972 72.6986524,159.104607 L72.6986524,138.218706 C72.6986524,130.4027 79.0574222,124.044361 86.8734279,124.044361 L132.127003,124.044361 C139.943009,124.044361 146.301778,130.403131 146.301778,138.218706 L146.301778,159.104607 C146.301778,159.204972 146.307809,159.303615 146.316855,159.401395 C142.912617,161.919575 139.243036,164.097891 135.357647,165.886376 L135.357647,146.921201 C135.357647,145.136593 133.91118,143.690556 132.127003,143.690556 C130.342826,143.690556 128.896358,145.136593 128.896358,146.921201 L128.896358,168.42997 C122.791302,170.4446 116.271431,171.538711 109.500431,171.538711 C102.729431,171.538711 96.2091288,170.4446 90.1040723,168.42997 Z" id="Shape" fill="#665E66" fill-rule="nonzero"></path>
                    <path d="M189.26832,52.3522656 C190.049922,50.4517578 190.484336,48.3729297 190.484336,46.1939844 C190.484336,37.2367188 183.197266,29.9496484 174.24,29.9496484 C172.033555,29.9496484 169.929375,30.3935156 168.009531,31.1940234 C160.757266,21.828125 152.387813,14.3829297 143.095391,9.0475 C132.638516,3.04433594 121.503594,0 110,0 C98.4964063,0 87.3614844,3.04433594 76.9046094,9.04792969 C67.6121875,14.3833594 59.2427344,21.828125 51.9904688,31.1944531 C50.070625,30.3939453 47.9664453,29.9500781 45.76,29.9500781 C36.8027344,29.9500781 29.5156641,37.2371484 29.5156641,46.1944141 C29.5156641,48.3733594 29.9500781,50.4521875 30.7316797,52.3526953 C10.8908594,67.8975 0,88.2754297 0,110 C0,121.503594 3.04390625,132.638516 9.04792969,143.094961 C14.3833594,152.387383 21.828125,160.756836 31.1940234,168.009102 C30.3935156,169.928945 29.9496484,172.033125 29.9496484,174.23957 C29.9496484,183.196836 37.2367188,190.484336 46.1939844,190.484336 C48.3729297,190.484336 50.4517578,190.049922 52.3522656,189.26832 C67.8975,209.108711 88.275,220 110,220 C131.72457,220 152.1025,209.108711 167.647734,189.26875 C169.548242,190.050352 171.62707,190.484766 173.806016,190.484766 C182.763281,190.484766 190.050352,183.197266 190.050352,174.24 C190.050352,172.033555 189.606484,169.929375 188.805977,168.009531 C198.171875,160.757266 205.61707,152.387813 210.95207,143.095391 C216.956094,132.638516 220,121.503594 220,110 C220,88.2754297 209.109141,67.8975 189.26832,52.3522656 Z M173.806016,157.995664 C164.84875,157.995664 157.56168,165.282734 157.56168,174.24 C157.56168,175.502852 157.711211,176.730469 157.985352,177.91125 C143.249648,183.629531 126.729023,186.643359 110,186.643359 C93.2709766,186.643359 76.7503516,183.629531 62.0146484,177.91125 C62.2887891,176.730469 62.4383203,175.502852 62.4383203,174.24 C62.4383203,165.282734 55.15125,157.995664 46.1939844,157.995664 C44.845625,157.995664 43.5363672,158.163672 42.2825391,158.474766 C36.4370703,143.624766 33.3566406,126.936133 33.3566406,110 C33.3566406,93.2705469 36.3704687,76.7499219 42.0891797,62.0150781 C43.2699609,62.2887891 44.4975781,62.43875 45.76,62.43875 C54.7172656,62.43875 62.0043359,55.15125 62.0043359,46.1939844 C62.0043359,44.845625 61.8363281,43.5359375 61.5252344,42.2825391 C76.3760938,36.4375 93.0647266,33.3566406 110,33.3566406 C126.935273,33.3566406 143.623906,36.4375 158.474766,42.2825391 C158.163672,43.5359375 157.995664,44.845625 157.995664,46.1939844 C157.995664,55.15125 165.282734,62.43875 174.24,62.43875 C175.502852,62.43875 176.730469,62.2892187 177.91082,62.0150781 C183.629531,76.7499219 186.643359,93.2705469 186.643359,110 C186.643359,126.936133 183.56293,143.624766 177.717461,158.474766 C176.463633,158.163672 175.154375,157.995664 173.806016,157.995664 Z M184.039023,46.1939844 C184.039023,51.5973047 179.64332,55.9934375 174.24,55.9934375 C168.83668,55.9934375 164.440977,51.5977344 164.440977,46.1939844 C164.440977,40.7910938 168.83668,36.3949609 174.24,36.3949609 C179.64332,36.3949609 184.039023,40.7910938 184.039023,46.1939844 Z M110,6.4453125 C129.753594,6.4453125 148.351758,16.4978516 162.659492,34.8171484 C162.154609,35.3310547 161.681953,35.8767578 161.248398,36.4538281 C145.545469,30.2078906 127.893477,26.9113281 110,26.9113281 C92.1065234,26.9113281 74.4545313,30.2083203 58.7516016,36.4538281 C58.3180469,35.8767578 57.8453906,35.3310547 57.3405078,34.8171484 C71.6482422,16.4978516 90.2464063,6.4453125 110,6.4453125 Z M45.76,36.3949609 C51.1633203,36.3949609 55.5590234,40.7906641 55.5590234,46.1939844 C55.5590234,51.5973047 51.1633203,55.9934375 45.76,55.9934375 C40.3566797,55.9934375 35.9609766,51.5977344 35.9609766,46.1939844 C35.9609766,40.7910937 40.3566797,36.3949609 45.76,36.3949609 Z M6.4453125,110 C6.4453125,90.4444922 16.3255469,71.9842578 34.3316016,57.7255078 C34.9189844,58.3077344 35.5514844,58.8435547 36.2217969,59.3316797 C30.1275391,74.8953906 26.9113281,92.3467188 26.9113281,110 C26.9113281,127.894336 30.2083203,145.546328 36.4533984,161.248828 C35.8767578,161.682383 35.3310547,162.155039 34.8171484,162.659492 C16.4978516,148.351328 6.4453125,129.753164 6.4453125,110 Z M36.3949609,174.24 C36.3949609,168.837109 40.7906641,164.440977 46.1939844,164.440977 C51.5973047,164.440977 55.9930078,168.83668 55.9930078,174.24 C55.9930078,179.64332 51.5973047,184.039453 46.1939844,184.039453 C40.7906641,184.039453 36.3949609,179.64332 36.3949609,174.24 Z M110,213.554688 C90.4440625,213.554688 71.9842578,203.674453 57.7255078,185.668398 C58.3077344,185.081016 58.8435547,184.448516 59.33125,183.778633 C74.8953906,189.872461 92.3467188,193.089102 110,193.089102 C127.653281,193.089102 145.104609,189.872891 160.66875,183.778633 C161.156445,184.448516 161.692266,185.081016 162.274492,185.668828 C148.015742,203.674453 129.555508,213.554688 110,213.554688 Z M173.806016,184.039453 C168.402695,184.039453 164.006992,179.64375 164.006992,174.24 C164.006992,168.837109 168.402695,164.440977 173.806016,164.440977 C179.209336,164.440977 183.605039,168.83668 183.605039,174.24 C183.605039,179.64332 179.208906,184.039453 173.806016,184.039453 Z M185.182852,162.659492 C184.668945,162.154609 184.123242,161.681953 183.546602,161.248398 C189.792109,145.545898 193.089102,127.893906 193.089102,109.99957 C193.089102,92.3462891 189.872891,74.8949609 183.778633,59.33125 C184.448945,58.8435547 185.081445,58.3073047 185.668828,57.7250781 C203.674453,71.9842578 213.554688,90.4444922 213.554688,110 C213.554688,129.753164 203.502148,148.351328 185.182852,162.659492 Z" id="Shape" fill="#665E66" fill-rule="nonzero"></path>
                </g>
            </g>
        </g>
    </g>
</svg>